<?xml version="1.0" ?><svg style="enable-background:new 0 0 512 512;" version="1.1" viewBox="0 0 512 512" xml:space="preserve" xmlns="http://www.w3.org/2000/svg" xmlns:xlink="http://www.w3.org/1999/xlink"><g id="_x33_9_x2C__Blood_x2C__bottle_x2C__packet"><g id="XMLID_1452_"><g id="XMLID_1453_"><circle cx="166" cy="428.5" id="XMLID_1147_" r="7.5"/><circle cx="443.5" cy="213.5" id="XMLID_1146_" r="7.5"/><circle cx="421" cy="383.5" id="XMLID_1145_" r="7.5"/><circle cx="51" cy="98.5" id="XMLID_1144_" r="7.5"/><circle cx="86" cy="248.5" id="XMLID_1143_" r="7.5"/><circle cx="333.5" cy="438.5" id="XMLID_1142_" r="7.5"/><path d="M336.5,51h-58c0-16.542-13.458-30-30-30s-30,13.458-30,30h-58c-23.159,0-42,18.841-42,42v236     c0,23.159,18.841,42,42,42h43v11c0,10.477,8.523,19,19,19h6v85c0,2.762,2.238,5,5,5h30c2.762,0,5-2.238,5-5v-85h6     c10.477,0,19-8.523,19-19v-11h43c23.159,0,42-18.841,42-42V93C378.5,69.841,359.659,51,336.5,51z M368.5,131v20h-55v-20H368.5z      M303.5,306h-110V131h110V306z M183.5,151h-55v-20h55V151z M258.5,481h-20v-80h20V481z M283.5,382c0,4.963-4.037,9-9,9     c-18.459,0-41.818,0-52,0c-4.963,0-9-4.037-9-9v-11h70V382z M336.5,361c-52.856,0-117.21,0-176,0c-17.645,0-32-14.355-32-32v-48     h20c2.762,0,5-2.238,5-5s-2.238-5-5-5h-20v-15h30c2.762,0,5-2.238,5-5c0-2.761-2.238-5-5-5h-30v-15h20c2.762,0,5-2.239,5-5     s-2.238-5-5-5h-20v-15h30c2.762,0,5-2.239,5-5s-2.238-5-5-5h-30v-35h55v150c0,2.762,2.238,5,5,5h120c2.762,0,5-2.238,5-5V161h55     v35h-30c-2.762,0-5,2.239-5,5s2.238,5,5,5h30v15h-20c-2.762,0-5,2.239-5,5s2.238,5,5,5h20v15h-30c-2.762,0-5,2.239-5,5     c0,2.762,2.238,5,5,5h30v15h-20c-2.762,0-5,2.238-5,5s2.238,5,5,5h20v48C368.5,346.645,354.144,361,336.5,361z M368.5,121     c-12.21,0-226.325,0-240,0V93c0-17.645,14.355-32,32-32h63.501c3.154,0,5.528-2.893,4.9-5.995     C226.365,42.542,235.942,31,248.5,31c12.566,0,22.133,11.551,19.599,24.005c-0.626,3.092,1.735,5.995,4.9,5.995H336.5     c17.644,0,32,14.355,32,32V121z" id="XMLID_1463_"/><path d="M248.5,251c16.235,0,29.13-12.788,29.993-29.746c1.438-28.211-25.491-52.923-26.638-53.961     c-1.93-1.747-4.879-1.721-6.779,0.063c-1.073,1.009-26.309,25.04-26.576,53.597c-0.074,7.947,2.983,15.451,8.607,21.128     C232.806,247.833,240.402,251,248.5,251z M248.569,178.162c6.711,7.186,20.854,24.57,19.938,42.584     C267.919,232.292,259.317,241,248.5,241c-11.016,0-20.105-8.904-20-19.953C228.673,202.516,242.133,185.329,248.569,178.162z" id="XMLID_1460_"/><path d="M438.5,61c-24.814,0-45,20.187-45,45s20.186,45,45,45c24.813,0,45-20.187,45-45S463.313,61,438.5,61z      M438.5,141c-19.299,0-35-15.701-35-35s15.701-35,35-35c19.299,0,35,15.701,35,35S457.799,141,438.5,141z" id="XMLID_1457_"/><path d="M58.5,361c-16.542,0-30,13.458-30,30s13.458,30,30,30s30-13.458,30-30S75.042,361,58.5,361z M58.5,411     c-11.028,0-20-8.972-20-20s8.972-20,20-20c11.028,0,20,8.972,20,20S69.528,411,58.5,411z" id="XMLID_1454_"/></g></g></g><g id="Layer_1"/></svg>