<?xml version="1.0" standalone="no"?><!DOCTYPE svg PUBLIC "-//W3C//DTD SVG 1.1//EN" "http://www.w3.org/Graphics/SVG/1.1/DTD/svg11.dtd"><svg class="icon" width="200px" height="200.00px" viewBox="0 0 1024 1024" version="1.1" xmlns="http://www.w3.org/2000/svg"><path fill="#bfbfbf" d="M512.890466 565.998737c54.397912 54.352756 108.799436 108.694675 163.208185 163.034787 15.018715 15.000653 39.375584 15.000653 54.399717 0 15.015102-15.013296 15.015102-39.33946 0-54.338306-54.399718-54.341919-108.808467-108.694675-163.20999-163.034787 54.401524-54.340113 108.810273-108.680225 163.20999-163.022144 15.015102-14.998846 15.015102-39.337654 0-54.338306-15.024133-15.01149-39.381003-15.01149-54.399717 0-54.408749 54.338306-108.810273 108.680225-163.208185 163.020337l-163.200959-163.020337c-15.02594-15.01149-39.381003-15.01149-54.397912 0-15.02594 15.000653-15.02594 39.33946 0 54.338306l163.199153 163.022144c-54.397912 54.338306-108.799436 108.692869-163.199153 163.034787-15.02594 14.998846-15.02594 39.32501 0 54.338306 15.016909 15.000653 39.371972 15.000653 54.397912 0 54.401524-54.341919 108.799436-108.683838 163.200959-163.034787z"  /></svg>